{"glyphs":{"0":{"ha":404,"x_min":0,"x_max":0,"o":"m 178 972 b 40 825 178 972 40 985 l 40 147 b 178 0 40 -12 178 0 l 226 0 b 364 147 226 0 364 -12 l 364 825 b 226 972 364 985 226 972 z m 229 851 l 229 224 b 207 203 229 213 219 203 b 186 224 196 203 186 213 l 186 851 b 207 874 186 864 196 874 b 229 851 219 874 229 864 z "},"1":{"ha":283,"x_min":0,"x_max":0,"o":"m 204 972 b 72 972 160 972 117 972 b 35 935 51 972 35 956 b 35 533 35 801 35 668 b 72 496 35 514 51 496 l 108 496 l 108 38 b 146 0 108 17 125 0 l 204 0 b 242 38 224 0 242 17 b 242 935 242 336 242 636 b 204 972 242 956 224 972 z "},"2":{"ha":397,"x_min":0,"x_max":0,"o":"m 58 935 b 58 533 58 801 58 668 b 96 496 58 514 75 496 l 147 496 b 139 396 231 496 229 396 l 124 396 b 38 274 54 396 38 331 b 38 76 38 179 38 171 b 129 0 38 15 74 0 b 257 0 171 0 214 0 b 356 138 347 0 356 58 b 257 254 356 211 333 254 b 151 254 222 254 188 254 b 193 306 151 282 157 306 l 257 306 b 356 444 340 306 356 388 b 356 825 356 572 356 699 b 219 972 356 985 219 972 l 96 972 b 58 935 75 972 58 956 z "},"3":{"ha":428,"x_min":0,"x_max":0,"o":"m 61 935 b 61 533 61 801 61 668 b 99 496 61 514 78 496 l 178 496 b 150 438 247 496 236 438 b 88 388 93 438 88 424 b 88 364 88 379 88 372 b 150 313 86 328 92 313 b 165 254 247 313 228 254 l 124 254 b 36 143 47 254 36 217 b 36 113 36 139 36 117 b 124 0 36 -7 83 0 b 244 0 169 0 199 0 b 382 147 244 0 382 -12 b 386 825 382 372 386 599 b 249 972 386 985 249 972 l 99 972 b 61 935 78 972 61 956 z "},"4":{"ha":414,"x_min":0,"x_max":0,"o":"m 176 172 l 208 172 b 238 178 208 172 221 174 l 238 38 b 275 0 238 17 256 0 l 333 0 b 371 38 354 0 371 17 b 371 935 371 336 371 636 b 333 972 371 956 354 972 l 275 972 b 238 935 254 972 238 956 l 238 392 b 217 375 236 382 228 375 b 196 396 206 375 196 385 b 196 935 196 575 196 756 b 158 972 196 956 179 972 l 76 972 b 39 935 56 972 39 956 b 39 318 39 729 39 524 b 176 172 39 226 85 172 z "},"5":{"ha":403,"x_min":0,"x_max":0,"o":"m 174 483 l 174 496 b 303 496 217 497 260 496 b 340 533 324 496 340 514 b 340 935 340 668 340 801 b 303 972 340 956 324 972 l 179 972 b 43 825 179 972 43 985 b 43 371 43 674 43 522 b 81 347 43 357 60 347 l 136 347 b 201 385 186 347 163 385 b 229 364 215 385 229 378 l 229 224 b 207 203 229 213 219 203 b 186 225 194 203 186 213 b 186 274 186 242 186 257 b 149 296 186 286 169 296 l 78 296 b 40 274 57 296 40 286 b 40 147 40 201 40 257 b 178 0 40 -12 178 0 l 226 0 b 364 147 226 0 364 -12 l 364 326 b 226 483 364 485 226 483 b 174 483 210 483 192 483 z "},"6":{"ha":401,"x_min":0,"x_max":0,"o":"m 174 483 l 174 496 b 303 496 217 496 260 496 b 340 533 324 496 340 514 b 340 935 340 668 340 801 b 303 972 340 956 324 972 l 179 972 b 43 825 179 972 43 985 b 40 147 43 599 40 372 b 178 0 40 -12 178 0 l 226 0 b 364 147 226 0 364 -12 l 364 326 b 226 483 364 485 226 483 b 174 483 210 483 192 483 z m 229 364 l 229 224 b 207 203 229 213 219 203 b 186 224 196 203 186 213 b 186 367 186 271 186 319 b 208 386 186 379 197 386 b 229 364 218 386 229 379 z "},"7":{"ha":372,"x_min":0,"x_max":0,"o":"m 293 972 b 68 972 218 972 143 972 b 31 935 47 972 31 956 b 31 533 31 801 31 668 b 68 496 31 514 47 496 b 197 496 111 496 154 497 l 197 38 b 235 0 197 17 214 0 l 293 0 b 331 38 313 0 331 17 b 331 935 331 336 331 636 b 293 972 331 956 313 972 z "},"8":{"ha":406,"x_min":0,"x_max":0,"o":"m 40 429 l 40 147 b 178 0 40 63 89 0 l 228 0 b 364 147 228 0 364 -12 l 364 429 b 335 533 364 476 351 510 b 364 635 351 556 364 588 l 364 814 b 228 972 364 974 228 972 b 178 972 211 972 194 972 b 40 814 178 972 40 974 l 40 635 b 72 535 40 596 51 561 b 40 429 54 513 40 478 z m 229 851 l 229 635 b 208 614 229 624 219 614 b 186 635 196 614 186 624 b 186 851 186 681 186 806 b 208 874 186 867 197 874 b 229 851 221 874 229 864 z m 210 489 b 229 467 222 488 229 478 l 229 224 b 208 203 229 213 219 203 b 186 224 196 203 186 213 b 186 467 186 269 186 419 b 206 489 186 481 196 488 z "},"9":{"ha":404,"x_min":0,"x_max":0,"o":"m 214 300 b 157 254 208 274 193 254 l 129 254 b 42 143 54 254 42 217 b 42 113 42 139 42 117 b 129 0 42 -7 89 0 b 224 0 175 0 178 0 b 360 147 224 0 360 -12 b 360 317 360 204 360 260 l 364 656 b 364 825 364 713 364 768 b 226 972 364 985 226 972 l 178 972 b 40 825 178 972 40 985 l 40 458 b 178 300 40 299 178 300 z m 175 464 l 175 749 b 197 769 175 760 185 769 b 218 749 208 769 218 760 b 218 461 218 653 218 557 b 197 442 218 449 207 442 b 175 464 186 442 175 449 z "},"\u0000":{"ha":0,"x_min":0,"x_max":0,"o":""},"\r":{"ha":0,"x_min":0,"x_max":0,"o":""}," ":{"ha":254,"x_min":0,"x_max":0,"o":""},"\n":{"ha":0,"x_min":0,"x_max":0,"o":""},".":{"ha":169,"x_min":0,"x_max":0,"o":"m 85 121 b 24 61 51 121 24 94 b 85 0 24 28 51 0 b 144 61 118 0 144 28 b 85 121 144 94 118 121 z "},"/":{"ha":465,"x_min":0,"x_max":0,"o":"m 367 976 l 300 976 b 256 938 279 976 260 960 b 71 39 192 632 133 344 b 99 0 65 17 79 0 l 167 0 b 211 39 188 0 207 17 b 396 938 275 344 333 632 b 367 976 400 958 388 976 z "},":":{"ha":178,"x_min":0,"x_max":0,"o":"m 89 676 b 149 736 122 676 149 703 b 89 797 149 769 122 797 b 28 736 56 797 28 769 b 89 676 28 703 56 676 z m 89 121 b 28 61 56 121 28 94 b 89 0 28 28 56 0 b 149 61 122 0 149 28 b 89 121 149 94 122 121 z "},";":{"ha":181,"x_min":0,"x_max":0,"o":"m 92 676 b 153 736 125 676 153 703 b 92 797 153 769 125 797 b 31 736 58 797 31 769 b 92 676 31 703 58 676 z m 89 121 b 28 61 56 121 28 94 b 83 0 28 29 53 3 b 58 -7 72 -7 58 -7 b 94 -62 33 -14 65 -79 b 89 121 169 -21 176 121 z "},"<":{"ha":296,"x_min":0,"x_max":0,"o":"m 172 479 b 172 497 169 488 169 489 b 221 626 213 601 221 626 b 215 608 221 626 215 608 b 264 738 215 608 224 633 b 242 778 271 757 263 778 l 172 779 b 122 746 151 779 129 767 b 74 617 82 642 74 617 b 79 635 74 617 79 635 b 31 506 79 635 71 610 b 31 471 26 496 26 481 b 79 342 71 367 79 342 b 74 360 79 342 74 360 b 122 231 74 360 82 335 b 172 197 129 210 151 197 l 242 199 b 264 239 263 199 271 219 b 215 368 224 343 215 368 b 221 350 215 368 221 350 b 172 479 221 350 213 375 z "},"=":{"ha":347,"x_min":0,"x_max":0,"o":"m 283 603 l 64 603 b 26 565 43 603 26 585 l 26 544 b 64 507 26 525 43 507 l 283 507 b 321 544 304 507 321 525 l 321 565 b 283 603 321 585 304 603 z m 283 469 l 64 469 b 26 432 43 469 26 451 l 26 411 b 64 374 26 392 43 374 l 283 374 b 321 411 304 374 321 392 l 321 432 b 283 469 321 451 304 469 z "},">":{"ha":296,"x_min":0,"x_max":0,"o":"m 265 506 b 217 635 225 610 217 635 b 222 617 217 635 222 617 b 174 746 222 617 214 642 b 124 779 165 767 143 779 l 54 778 b 32 738 33 778 24 757 b 81 608 72 633 81 608 b 75 626 81 608 75 626 b 124 497 75 626 83 601 b 124 479 126 489 126 488 b 75 350 83 375 75 350 b 81 368 75 350 81 368 b 32 239 81 368 72 343 b 54 199 24 219 33 199 l 124 197 b 174 231 143 197 165 210 b 222 360 214 335 222 360 b 217 342 222 360 217 342 b 265 471 217 342 225 367 b 265 506 268 481 268 496 z "},"?":{"ha":371,"x_min":0,"x_max":0,"o":"m 199 943 l 75 943 b 38 906 54 943 38 926 b 38 567 38 793 38 679 b 75 529 38 546 54 529 l 126 529 b 128 428 206 529 208 435 b 56 308 56 421 56 367 b 140 232 56 251 89 232 b 225 308 192 232 225 251 l 225 338 l 236 338 b 335 478 319 338 335 421 b 335 797 335 583 335 690 b 199 943 335 956 199 943 z m 140 32 b 229 121 189 32 229 72 b 140 210 229 171 189 210 b 51 121 92 210 51 171 b 140 32 51 72 92 32 z "},"@":{"ha":688,"x_min":0,"x_max":0,"o":"m 343 804 b 29 489 169 804 29 663 b 343 172 29 314 169 172 b 657 489 517 172 657 314 b 343 804 657 663 517 804 z m 343 251 b 107 489 213 251 107 357 b 343 725 107 619 213 725 b 579 489 474 725 579 619 b 343 251 579 357 474 251 z m 368 689 l 308 689 b 292 672 299 689 292 682 b 292 581 292 613 292 642 b 308 564 292 572 299 564 l 346 564 b 374 549 364 564 372 561 b 346 549 365 549 354 549 b 283 483 346 549 283 554 l 283 371 b 346 304 283 299 346 304 l 360 304 b 379 308 364 304 371 306 b 401 304 383 306 390 304 b 429 318 426 304 429 310 b 429 624 429 421 429 522 b 368 689 429 694 368 689 z m 374 413 b 364 403 374 407 369 403 b 354 413 358 403 354 407 l 354 496 b 364 504 354 500 358 504 b 374 496 369 504 374 500 z "},"A":{"ha":458,"x_min":0,"x_max":0,"o":"m 301 972 b 157 972 253 972 204 972 b 39 825 157 972 39 978 b 39 38 39 563 39 300 b 76 0 39 17 57 0 l 146 0 b 183 38 167 0 183 17 l 183 247 l 274 247 l 274 38 b 311 0 274 17 292 0 l 381 0 b 418 38 401 0 418 17 b 418 235 418 103 418 169 l 419 628 b 419 825 419 694 419 760 b 301 972 419 978 301 972 z m 274 389 l 183 389 l 183 493 b 224 596 183 521 186 592 b 235 596 228 596 231 596 b 274 492 272 592 274 521 z "},"B":{"ha":429,"x_min":0,"x_max":0,"o":"m 26 0 b 279 0 111 0 196 0 b 407 147 311 1 407 14 l 407 303 b 324 442 407 393 363 429 b 368 558 349 463 368 499 l 368 825 b 231 972 368 985 231 972 l 64 972 b 26 935 43 972 26 956 l 26 807 b 149 679 94 804 149 749 b 26 551 149 611 94 556 l 26 307 b 54 311 35 310 44 311 b 153 213 108 311 153 267 b 54 114 153 158 108 114 b 26 118 44 114 35 115 z "},"C":{"ha":407,"x_min":0,"x_max":0,"o":"m 324 972 l 174 972 b 36 825 174 972 36 985 b 40 147 36 599 40 372 b 178 0 40 -12 178 0 l 299 0 b 386 113 339 0 386 -7 b 386 143 386 117 386 139 b 299 254 386 217 375 254 l 257 254 b 186 349 201 254 186 303 l 186 443 b 244 496 186 460 197 496 l 324 496 b 361 533 344 496 361 514 b 361 935 361 668 361 801 b 324 972 361 956 344 972 z "},"D":{"ha":424,"x_min":0,"x_max":0,"o":"m 246 972 l 79 972 b 42 935 58 972 42 956 b 42 38 42 618 42 351 b 79 0 42 17 58 0 b 246 0 188 0 147 0 b 383 126 246 0 383 -32 l 383 825 b 246 972 383 985 246 972 z m 246 376 b 225 354 246 364 236 354 b 203 376 213 354 203 364 l 203 849 b 225 871 203 861 213 871 b 246 849 236 871 246 861 z "},"E":{"ha":410,"x_min":0,"x_max":0,"o":"m 324 972 l 174 972 b 36 825 174 972 36 985 b 40 147 36 599 40 372 b 178 0 40 -12 178 0 l 299 0 b 386 113 339 0 386 -7 b 386 143 386 117 386 139 b 299 254 386 217 375 254 l 257 254 b 272 313 194 254 175 313 b 335 379 333 313 335 325 b 272 438 336 421 333 438 b 244 496 186 438 175 496 l 324 496 b 361 533 344 496 361 514 b 361 935 361 668 361 801 b 324 972 361 956 344 972 z "},"F":{"ha":383,"x_min":0,"x_max":0,"o":"m 325 972 l 175 972 b 38 825 175 972 38 985 b 38 625 38 758 38 692 l 40 232 b 40 32 40 165 40 100 b 78 0 40 24 42 0 l 157 0 b 189 32 189 0 189 24 b 189 197 189 88 189 142 b 274 288 189 242 192 288 b 336 340 332 288 338 303 b 336 357 336 346 336 351 b 274 414 338 397 333 414 b 247 496 176 414 169 496 l 325 496 b 363 533 346 496 363 514 b 363 935 363 668 363 801 b 325 972 363 956 346 972 z "},"G":{"ha":426,"x_min":0,"x_max":0,"o":"m 335 972 l 174 972 b 36 825 174 972 36 985 b 40 147 36 599 40 372 b 178 0 40 -12 178 0 l 310 0 b 397 113 350 0 397 -7 b 397 400 397 208 397 304 b 344 446 397 433 378 446 b 276 446 322 446 299 446 b 217 364 222 446 217 411 b 276 293 217 319 231 293 l 303 293 b 300 254 336 293 342 254 b 257 254 282 254 275 254 b 186 349 201 254 186 303 l 186 443 b 246 496 186 460 197 496 l 335 496 b 372 533 356 496 372 514 b 372 935 372 668 372 801 b 335 972 372 956 356 972 z "},"H":{"ha":464,"x_min":0,"x_max":0,"o":"m 276 299 l 276 38 b 314 0 276 17 293 0 l 383 0 b 421 38 404 0 421 17 b 421 935 421 338 421 635 b 383 972 421 956 404 972 l 314 972 b 276 935 293 972 276 956 l 276 635 b 236 556 276 606 274 560 b 226 556 233 556 229 556 b 186 632 190 560 186 604 l 186 935 b 149 972 186 956 169 972 l 79 972 b 42 935 58 972 42 956 b 42 38 42 635 42 338 b 79 0 42 17 58 0 l 149 0 b 186 38 169 0 186 17 l 186 300 b 226 376 186 328 190 372 b 236 376 229 376 233 376 b 276 299 274 372 276 326 z "},"I":{"ha":218,"x_min":0,"x_max":0,"o":"m 42 935 b 42 38 42 636 42 336 b 79 0 42 17 58 0 l 138 0 b 175 38 158 0 175 17 b 175 935 175 336 175 636 b 138 972 175 956 158 972 l 79 972 b 42 935 58 972 42 956 z "},"J":{"ha":354,"x_min":0,"x_max":0,"o":"m 313 147 b 313 344 313 213 313 279 l 317 738 b 317 935 317 804 317 869 b 279 972 317 956 300 972 l 218 972 b 181 935 197 972 181 956 b 181 349 181 739 181 544 b 110 254 181 303 165 254 l 82 254 b -6 143 6 254 -6 217 b -6 113 -6 139 -6 117 b 82 0 -6 -7 42 0 b 176 0 128 0 131 0 b 313 147 176 0 313 -12 z "},"K":{"ha":403,"x_min":0,"x_max":0,"o":"m 175 38 b 175 315 175 131 175 222 b 256 38 207 204 189 265 b 294 0 261 18 274 0 l 364 0 b 390 47 385 0 397 22 b 264 472 308 329 343 200 b 389 926 329 707 315 654 b 364 972 394 946 383 972 l 303 972 b 256 944 282 972 261 964 l 175 650 b 175 935 175 746 175 840 b 138 972 175 956 158 972 l 79 972 b 42 935 58 972 42 956 b 42 38 42 636 42 336 b 79 0 42 17 58 0 l 138 0 b 175 38 158 0 175 17 z "},"L":{"ha":413,"x_min":0,"x_max":0,"o":"m 42 935 b 42 38 42 636 42 336 b 79 0 42 17 58 0 b 322 0 160 0 242 0 b 421 113 363 0 421 -7 b 322 254 421 189 418 254 l 243 254 b 175 331 188 258 176 304 l 175 935 b 138 972 175 956 158 972 l 79 972 b 42 935 58 972 42 956 z "},"M":{"ha":696,"x_min":0,"x_max":0,"o":"m 311 0 l 383 0 b 421 38 404 0 421 17 l 421 488 b 461 596 421 519 421 592 b 471 596 464 596 468 596 b 511 485 511 592 511 518 l 511 38 b 549 0 511 17 528 0 l 618 0 b 656 38 639 0 656 17 b 656 825 656 300 656 563 b 539 972 656 978 539 972 b 421 972 492 972 465 972 b 347 947 393 972 368 963 b 274 972 326 963 301 972 b 157 972 229 972 203 972 b 39 825 157 972 39 978 b 39 38 39 563 39 300 b 76 0 39 17 57 0 l 146 0 b 183 38 167 0 183 17 l 183 492 b 224 596 183 521 185 592 b 235 596 228 596 231 596 b 274 490 274 592 274 519 l 274 38 b 311 0 274 17 292 0 z "},"N":{"ha":458,"x_min":0,"x_max":0,"o":"m 301 972 b 157 972 253 972 204 972 b 39 825 157 972 39 978 b 39 38 39 563 39 300 b 76 0 39 17 57 0 l 146 0 b 183 38 167 0 183 17 l 183 492 b 224 596 183 521 185 592 b 235 596 228 596 231 596 b 274 490 274 592 274 519 l 274 38 b 311 0 274 17 292 0 l 381 0 b 418 38 401 0 418 17 b 418 235 418 103 418 169 l 419 628 b 419 825 419 694 419 760 b 301 972 419 978 301 972 z "},"O":{"ha":399,"x_min":0,"x_max":0,"o":"m 175 972 b 38 825 175 972 38 985 l 38 147 b 175 0 38 -12 175 0 l 224 0 b 361 147 224 0 361 -12 l 361 825 b 224 972 361 985 224 972 z m 238 851 l 238 379 b 215 357 238 367 228 357 b 194 379 204 357 194 367 l 194 851 b 215 874 194 864 204 874 b 238 851 228 874 238 864 z "},"P":{"ha":399,"x_min":0,"x_max":0,"o":"m 165 38 l 165 246 l 236 246 b 374 393 236 246 374 235 l 374 825 b 236 972 374 985 236 972 l 69 972 b 32 935 49 972 32 956 l 32 746 b 154 618 100 743 154 688 b 32 490 154 550 100 494 l 32 38 b 69 0 32 17 49 0 l 128 0 b 165 38 149 0 165 17 z "},"Q":{"ha":418,"x_min":0,"x_max":0,"o":"m 175 972 b 38 825 175 972 38 985 l 38 147 b 175 0 38 -12 175 0 l 224 0 b 294 14 224 0 260 -3 b 326 0 301 4 311 0 l 379 0 b 399 47 400 0 410 22 l 361 138 l 361 825 b 224 972 361 985 224 972 z m 238 851 l 238 379 b 215 357 238 367 228 357 b 194 379 204 357 194 367 l 194 851 b 215 874 194 864 204 874 b 238 851 228 874 238 864 z "},"R":{"ha":411,"x_min":0,"x_max":0,"o":"m 165 38 l 165 246 l 186 246 b 246 38 200 199 190 231 b 285 0 251 18 264 0 l 354 0 b 381 47 375 0 388 22 b 317 267 329 224 329 224 b 374 393 346 286 374 322 l 374 825 b 236 972 374 985 236 972 l 69 972 b 32 935 49 972 32 956 l 32 746 b 154 618 100 743 154 688 b 32 490 154 550 100 494 l 32 38 b 69 0 32 17 49 0 l 128 0 b 165 38 149 0 165 17 z "},"S":{"ha":383,"x_min":0,"x_max":0,"o":"m 293 972 b 33 825 176 972 33 999 b 33 435 33 694 33 565 b 132 344 33 378 65 344 l 196 344 b 196 254 275 344 271 254 l 132 254 b 33 124 43 254 33 199 b 132 0 33 4 92 0 l 258 0 b 351 76 314 0 351 13 b 351 358 351 171 351 264 b 265 435 351 415 319 435 l 251 435 b 179 469 204 435 179 449 b 243 496 179 486 199 496 l 293 496 b 331 533 314 496 331 514 b 331 935 331 668 331 801 b 293 972 331 956 314 972 z "},"T":{"ha":397,"x_min":0,"x_max":0,"o":"m 15 935 b 15 533 15 801 15 668 b 53 496 15 514 32 496 l 65 496 b 124 443 113 496 124 460 b 124 340 124 408 124 375 l 122 135 b 122 32 122 100 122 67 b 154 0 122 24 124 0 l 242 0 b 275 32 274 0 275 24 b 275 135 275 67 275 100 l 274 340 b 274 443 274 375 274 408 b 332 496 274 460 283 496 l 344 496 b 382 533 365 496 382 514 b 382 935 382 668 382 801 b 344 972 382 956 365 972 b 53 972 201 972 196 972 b 15 935 32 972 15 956 z "},"U":{"ha":458,"x_min":0,"x_max":0,"o":"m 419 147 b 418 935 419 408 418 672 b 381 972 418 956 401 972 l 311 972 b 274 935 292 972 274 956 l 274 358 b 235 254 274 332 274 254 b 224 254 231 254 228 254 b 183 358 185 254 183 332 l 183 935 b 146 972 183 956 167 972 l 76 972 b 39 935 57 972 39 956 b 39 147 39 672 39 408 b 157 0 39 -6 157 0 b 301 0 204 0 253 0 b 419 147 301 0 419 -6 z "},"V":{"ha":419,"x_min":0,"x_max":0,"o":"m 13 931 b 38 707 21 857 29 782 l 86 257 b 111 33 94 182 103 108 b 151 0 113 13 131 0 l 267 0 b 308 33 288 0 306 13 b 332 257 317 108 325 182 l 382 707 b 406 931 389 782 397 857 b 372 972 408 951 393 972 l 314 972 b 274 939 294 972 275 960 b 210 353 251 746 231 549 b 146 939 188 549 167 746 b 104 972 143 960 125 972 l 46 972 b 13 931 25 972 11 951 z "},"W":{"ha":686,"x_min":0,"x_max":0,"o":"m 13 931 b 38 707 21 857 29 782 l 86 257 b 111 33 94 182 103 108 b 151 0 113 13 131 0 l 267 0 b 308 33 288 0 306 13 b 343 350 319 138 331 244 b 378 33 354 244 365 138 b 418 0 379 13 399 0 l 533 0 b 575 33 554 0 572 13 b 599 257 583 108 592 182 l 649 707 b 672 931 656 782 664 857 b 639 972 675 951 660 972 l 582 972 b 540 939 561 972 542 960 b 476 353 518 746 497 549 b 413 939 454 549 433 746 b 371 972 410 960 392 972 l 314 972 b 274 939 294 972 275 960 b 210 353 251 746 231 549 b 146 939 188 549 167 746 b 104 972 143 960 125 972 l 46 972 b 13 931 25 972 11 951 z "},"X":{"ha":404,"x_min":0,"x_max":0,"o":"m 19 931 b 129 503 56 789 93 646 b 11 42 90 349 50 194 b 38 0 6 21 18 0 l 107 0 b 154 33 128 0 149 13 l 201 219 l 250 33 b 296 0 254 13 275 0 l 365 0 b 392 42 386 0 397 21 b 274 503 353 194 314 349 b 383 931 311 646 347 789 b 357 972 389 951 378 972 l 288 972 b 242 939 267 972 247 960 l 201 785 l 161 939 b 115 972 157 960 136 972 l 46 972 b 19 931 26 972 14 951 z "},"Y":{"ha":417,"x_min":0,"x_max":0,"o":"m 282 392 b 399 538 297 392 399 397 b 399 674 399 603 399 644 l 397 799 b 397 935 397 828 397 869 b 360 972 397 956 381 972 l 290 972 b 253 935 271 972 253 956 l 253 664 b 219 560 253 636 258 560 b 197 560 215 560 201 560 b 163 664 158 560 163 636 l 163 935 b 125 972 163 956 146 972 l 56 972 b 18 935 36 972 18 956 b 18 538 18 672 18 800 b 133 392 18 400 115 392 b 132 32 132 271 132 151 b 164 0 132 24 132 0 l 251 0 b 283 32 283 0 283 24 b 282 392 283 151 283 271 z "},"Z":{"ha":383,"x_min":0,"x_max":0,"o":"m 51 935 b 51 533 51 801 51 668 b 89 496 51 514 68 496 l 140 496 b 203 469 183 496 203 486 b 132 435 203 449 178 435 b 31 358 76 435 31 428 b 31 76 31 264 31 171 b 124 0 31 13 69 0 l 250 0 b 349 138 340 0 349 58 b 250 254 349 211 326 254 l 186 254 b 186 344 113 254 107 344 l 250 344 b 349 435 317 344 349 378 b 349 825 349 565 349 694 b 213 972 349 985 213 972 l 89 972 b 51 935 68 972 51 956 z "},"[":{"ha":276,"x_min":0,"x_max":0,"o":"m 211 893 b 249 936 231 893 249 915 l 249 965 b 211 1003 249 986 231 1003 b 79 1003 167 1003 124 1003 b 42 965 58 1003 42 986 b 42 11 42 647 42 329 b 79 -26 42 -10 58 -26 b 211 -26 124 -26 167 -26 b 249 11 231 -26 249 -10 l 249 40 b 211 83 249 61 231 83 l 175 83 b 175 893 175 353 175 624 z "},"\\":{"ha":465,"x_min":0,"x_max":0,"o":"m 396 39 b 350 265 381 115 365 190 l 257 711 b 211 938 242 786 226 861 b 167 976 207 960 188 976 l 99 976 b 71 938 79 976 65 958 l 254 39 b 299 0 258 17 278 0 l 367 0 b 396 39 388 0 400 17 z "},"]":{"ha":276,"x_min":0,"x_max":0,"o":"m 197 1003 b 65 1003 153 1003 110 1003 b 28 965 44 1003 28 986 l 28 936 b 65 893 28 915 44 893 l 101 893 b 101 83 101 624 101 353 l 65 83 b 28 40 44 83 28 61 l 28 11 b 65 -26 28 -10 44 -26 b 197 -26 110 -26 153 -26 b 235 11 217 -26 235 -10 b 235 965 235 329 235 647 b 197 1003 235 986 217 1003 z "},"_":{"ha":339,"x_min":0,"x_max":0,"o":"m 279 94 l 60 94 b 22 57 39 94 22 78 l 22 38 b 60 0 22 17 39 0 l 279 0 b 317 38 300 0 317 17 l 317 57 b 279 94 317 78 300 94 z "},"a":{"ha":382,"x_min":0,"x_max":0,"o":"m 368 42 b 290 758 335 339 322 461 b 249 792 288 778 269 792 l 133 792 b 92 758 113 792 94 778 b 14 42 60 461 47 339 b 47 0 13 21 26 0 l 106 -1 b 147 32 126 -1 144 13 l 157 124 l 225 124 l 235 33 b 276 0 238 13 256 0 l 335 0 b 368 42 356 0 369 21 z m 176 297 l 190 438 l 206 297 z "},"b":{"ha":424,"x_min":0,"x_max":0,"o":"m 344 403 b 381 511 365 424 381 458 l 381 644 b 243 790 381 803 243 790 l 76 790 b 39 753 56 790 39 774 l 39 38 b 76 0 39 17 56 0 b 260 0 138 0 199 0 b 397 146 351 0 397 54 l 397 279 b 344 403 397 346 372 382 z m 283 500 b 263 476 283 488 274 476 b 242 500 251 476 242 488 l 242 667 b 263 690 242 679 251 690 b 283 667 274 690 283 679 z m 283 135 b 263 111 283 122 274 111 b 242 135 251 111 242 122 l 242 301 b 263 325 242 314 251 325 b 283 301 274 325 283 314 z "},"c":{"ha":407,"x_min":0,"x_max":0,"o":"m 383 142 b 296 254 383 215 372 254 l 254 254 b 183 349 199 254 183 303 l 183 443 b 242 496 183 460 194 496 l 338 496 b 375 533 358 496 375 513 b 375 753 375 667 375 619 b 338 790 375 774 358 790 l 171 790 b 33 644 171 790 33 803 b 38 146 33 418 38 372 b 175 0 38 -12 175 0 l 310 0 b 383 113 385 0 383 44 b 383 142 383 117 383 138 z "},"d":{"ha":415,"x_min":0,"x_max":0,"o":"m 244 790 b 76 790 189 790 132 790 b 39 753 56 790 39 774 b 39 38 39 454 39 336 b 76 0 39 17 56 0 b 240 0 129 0 186 0 b 378 146 240 0 378 -12 b 382 644 378 372 382 418 b 244 790 382 803 244 790 z m 231 349 b 172 254 231 306 218 261 l 172 496 b 231 443 221 496 231 460 z "},"e":{"ha":376,"x_min":0,"x_max":0,"o":"m 257 254 l 193 254 b 208 360 125 254 89 360 b 271 407 264 360 271 374 b 271 432 271 415 271 424 b 208 486 272 469 268 486 b 193 533 122 486 128 533 b 308 533 232 533 271 533 b 346 571 329 533 346 550 b 346 753 346 632 346 692 b 308 790 346 774 329 790 b 131 790 250 790 190 790 b 38 714 75 790 38 778 b 38 76 38 501 38 289 b 131 0 38 13 75 0 l 257 0 b 356 136 346 0 356 57 b 257 254 356 210 333 254 z "},"f":{"ha":350,"x_min":0,"x_max":0,"o":"m 308 790 b 131 790 250 790 190 790 b 38 714 75 790 38 778 b 38 38 38 489 38 263 b 75 0 38 17 54 0 l 133 0 b 171 38 154 0 171 17 l 171 268 b 208 360 171 313 174 360 b 271 410 265 360 271 375 b 271 436 271 419 271 428 b 208 486 271 471 265 486 b 193 533 157 486 164 533 b 308 533 232 533 271 533 b 346 571 329 533 346 550 b 346 753 346 632 346 692 b 308 790 346 774 329 790 z "},"g":{"ha":419,"x_min":0,"x_max":0,"o":"m 322 442 l 269 442 b 201 349 208 442 201 403 b 269 268 201 299 217 268 l 290 268 b 322 256 304 268 315 263 l 322 251 b 296 254 314 253 306 254 l 254 254 b 183 349 199 254 183 303 l 183 443 b 242 496 183 460 194 496 l 338 496 b 375 533 358 496 375 513 b 375 753 375 667 375 619 b 338 790 375 774 358 790 l 171 790 b 33 644 171 790 33 803 b 38 146 33 418 38 372 b 175 0 38 -12 175 0 l 344 0 b 386 51 379 0 386 28 b 386 390 386 115 386 325 b 322 442 386 436 357 442 z "},"h":{"ha":393,"x_min":0,"x_max":0,"o":"m 315 790 l 257 790 b 219 753 236 790 219 774 l 219 458 l 172 458 l 172 753 b 135 790 172 774 156 790 l 76 790 b 39 753 56 790 39 774 b 39 38 39 454 39 336 b 76 0 39 17 56 0 l 135 0 b 172 38 156 0 172 17 l 172 283 b 219 283 188 283 204 283 l 219 38 b 257 0 219 17 236 0 l 315 0 b 353 38 336 0 353 17 b 353 753 353 336 353 454 b 315 790 353 774 336 790 z "},"i":{"ha":207,"x_min":0,"x_max":0,"o":"m 132 790 l 74 790 b 36 753 53 790 36 774 b 36 658 36 744 36 717 b 74 621 36 638 53 621 l 132 621 b 169 658 153 621 169 638 b 169 753 169 667 169 694 b 132 790 169 774 153 790 z m 132 583 l 74 583 b 36 546 53 583 36 567 b 36 38 36 247 36 336 b 74 0 36 17 53 0 l 132 0 b 169 38 153 0 169 17 b 169 546 169 336 169 247 b 132 583 169 567 153 583 z "},"j":{"ha":293,"x_min":0,"x_max":0,"o":"m 219 790 l 161 790 b 124 753 140 790 124 774 b 124 658 124 744 124 717 b 161 621 124 638 140 621 l 219 621 b 257 658 240 621 257 638 b 257 753 257 667 257 694 b 219 790 257 774 240 790 z m 219 583 l 161 583 b 124 546 140 583 124 567 b 124 249 124 468 124 328 b 86 193 124 210 118 193 b -1 97 14 193 -1 167 b 86 0 -1 8 47 0 b 179 0 118 0 149 0 b 257 135 210 0 257 22 b 257 546 257 435 257 247 b 219 583 257 567 240 583 z "},"k":{"ha":382,"x_min":0,"x_max":0,"o":"m 372 47 l 232 418 l 369 743 b 344 790 378 769 365 790 l 268 790 b 229 753 249 790 238 772 l 172 619 l 172 753 b 135 790 172 774 156 790 l 76 790 b 39 753 56 790 39 774 b 39 38 39 454 39 336 b 76 0 39 17 56 0 l 135 0 b 172 38 156 0 172 17 l 172 207 l 238 38 b 274 0 244 18 254 0 l 344 0 b 372 47 365 0 379 21 z "},"l":{"ha":354,"x_min":0,"x_max":0,"o":"m 257 254 l 240 254 b 171 342 179 254 171 317 l 171 753 b 133 790 171 774 154 790 l 75 790 b 38 753 54 790 38 774 b 38 76 38 528 38 301 b 128 0 38 15 72 0 b 257 0 171 0 214 0 b 356 136 346 0 356 57 b 257 254 356 210 333 254 z "},"m":{"ha":688,"x_min":0,"x_max":0,"o":"m 533 790 b 417 790 485 790 464 790 b 343 761 417 790 381 785 b 271 790 307 785 271 790 b 154 790 232 790 193 790 b 36 644 154 790 36 796 b 36 38 36 382 36 300 b 74 0 36 17 54 0 l 143 0 b 181 38 164 0 181 17 l 181 390 b 221 496 181 419 182 492 b 232 496 225 496 228 496 b 271 411 263 492 269 446 b 271 38 271 296 271 214 b 308 0 271 17 289 0 l 378 0 b 415 38 399 0 415 17 b 417 413 415 214 417 297 b 456 496 418 444 425 492 b 467 496 460 496 463 496 b 506 389 506 490 506 419 l 506 38 b 544 0 506 17 524 0 l 613 0 b 650 38 633 0 650 17 b 650 206 650 103 650 157 l 651 476 b 651 644 651 525 651 579 b 533 790 651 796 533 790 z "},"n":{"ha":453,"x_min":0,"x_max":0,"o":"m 299 790 b 154 790 250 790 201 790 b 36 644 154 790 36 796 b 36 38 36 382 36 300 b 74 0 36 17 54 0 l 143 0 b 181 38 164 0 181 17 l 181 390 b 221 496 181 419 182 492 b 232 496 225 496 228 496 b 271 389 271 490 271 419 l 271 38 b 308 0 271 17 289 0 l 378 0 b 415 38 399 0 415 17 b 415 206 415 103 415 157 l 417 476 b 417 644 417 525 417 579 b 299 790 417 796 299 790 z "},"o":{"ha":393,"x_min":0,"x_max":0,"o":"m 221 790 l 172 790 b 35 644 81 790 35 736 l 35 146 b 172 0 35 54 81 0 l 221 0 b 358 146 221 0 358 -12 l 358 644 b 221 790 358 803 221 790 z m 235 224 b 213 203 235 211 225 203 b 192 224 201 203 192 211 l 192 671 b 213 692 192 682 201 692 b 235 671 225 692 235 682 z "},"p":{"ha":403,"x_min":0,"x_max":0,"o":"m 243 790 l 76 790 b 39 753 56 790 39 774 b 39 38 39 433 39 424 b 76 0 39 17 56 0 l 135 0 b 172 38 156 0 172 17 l 172 190 l 243 190 b 381 338 243 190 381 178 l 381 644 b 243 790 381 803 243 790 z m 283 326 b 263 303 283 314 275 303 b 242 326 251 303 242 314 l 242 667 b 263 690 242 679 251 690 b 283 667 275 690 283 679 z "},"q":{"ha":401,"x_min":0,"x_max":0,"o":"m 325 790 l 158 790 b 21 644 158 790 21 803 l 21 338 b 158 190 21 178 158 190 l 229 190 l 229 38 b 267 0 229 17 246 0 l 325 0 b 363 38 346 0 363 17 b 363 753 363 424 363 433 b 325 790 363 774 346 790 z m 160 326 b 139 303 160 314 150 303 b 118 326 126 303 118 314 l 118 667 b 139 690 118 679 126 690 b 160 667 150 690 160 679 z "},"r":{"ha":411,"x_min":0,"x_max":0,"o":"m 381 338 l 381 644 b 243 790 381 803 243 790 l 76 790 b 39 753 56 790 39 774 b 39 38 39 433 39 424 b 76 0 39 17 56 0 l 135 0 b 172 38 156 0 172 17 l 172 190 l 178 190 l 236 38 b 274 0 243 18 253 0 l 343 0 b 372 47 364 0 378 21 l 313 204 b 381 338 346 221 381 258 z m 283 326 b 263 303 283 314 275 303 b 242 326 251 303 242 314 l 242 667 b 263 690 242 679 251 690 b 283 667 274 690 283 679 z "},"s":{"ha":378,"x_min":0,"x_max":0,"o":"m 261 433 l 247 433 b 239 496 164 433 143 496 l 289 496 b 326 533 310 496 326 513 l 326 753 b 289 790 326 774 310 790 l 167 790 b 31 663 167 790 40 801 b 29 433 29 663 29 435 b 128 344 29 376 63 344 l 192 344 b 192 254 271 344 267 254 l 128 254 b 29 122 40 254 29 196 b 128 0 29 4 88 0 b 261 0 172 0 217 0 b 347 76 315 0 347 19 b 347 358 347 169 347 264 b 261 433 347 414 315 433 z "},"t":{"ha":344,"x_min":0,"x_max":0,"o":"m 300 790 b 44 790 214 790 129 790 b 7 753 24 790 7 774 b 7 571 7 692 7 632 b 44 533 7 550 24 533 l 104 533 l 104 38 b 142 0 104 17 121 0 l 200 0 b 238 38 221 0 238 17 l 238 533 l 300 533 b 338 571 319 533 338 550 b 338 753 338 632 338 692 b 300 790 338 774 319 790 z "},"u":{"ha":399,"x_min":0,"x_max":0,"o":"m 322 790 l 274 790 b 236 753 253 790 236 774 b 236 224 236 576 236 400 b 214 203 236 213 226 203 b 193 224 203 203 193 211 b 193 753 193 400 193 576 b 156 790 193 774 176 790 l 74 790 b 36 753 53 790 36 774 b 36 146 36 551 36 349 b 174 0 36 54 82 0 l 206 0 b 247 10 206 0 224 1 b 274 0 254 4 264 0 l 322 0 b 360 38 343 0 360 17 b 360 753 360 276 360 514 b 322 790 360 774 343 790 z "},"v":{"ha":382,"x_min":0,"x_max":0,"o":"m 335 790 l 276 790 b 235 757 256 790 238 778 b 190 353 217 588 204 474 b 147 758 178 474 165 588 b 106 792 144 778 126 792 l 47 790 b 14 749 26 790 13 769 b 92 32 47 451 60 329 b 133 -1 94 13 113 -1 l 249 -1 b 290 32 269 -1 288 13 b 368 749 322 329 335 451 b 335 790 369 769 356 790 z "},"w":{"ha":606,"x_min":0,"x_max":0,"o":"m 558 790 l 500 790 b 458 757 479 790 461 778 b 414 353 440 588 428 474 b 371 758 401 474 389 588 b 329 792 368 778 350 792 l 271 790 b 235 757 254 790 236 775 b 190 353 217 588 204 474 b 147 758 178 474 165 588 b 106 792 144 778 126 792 l 47 790 b 14 749 26 790 13 769 b 92 32 47 451 60 329 b 133 -1 94 13 113 -1 l 249 -1 b 290 32 269 -1 288 13 l 303 151 l 315 32 b 357 -1 318 13 336 -1 l 472 -1 b 514 32 493 -1 511 13 b 592 749 546 329 558 451 b 558 790 593 769 579 790 z "},"x":{"ha":372,"x_min":0,"x_max":0,"o":"m 360 40 b 258 401 321 190 290 296 b 356 749 289 503 319 606 b 329 790 361 769 349 790 l 260 790 b 213 757 239 790 218 778 b 186 656 204 721 194 688 b 160 757 178 688 168 721 b 113 790 154 778 133 790 l 43 790 b 17 749 22 790 11 769 b 114 401 53 606 83 503 b 13 40 82 296 51 190 b 39 0 7 21 19 -1 l 108 0 b 156 33 129 0 150 13 b 186 150 165 75 176 114 b 217 33 196 114 206 75 b 263 0 222 13 243 0 l 332 0 b 360 40 353 -1 365 21 z "},"y":{"ha":389,"x_min":0,"x_max":0,"o":"m 315 790 l 267 790 b 229 753 246 790 229 774 b 229 460 229 656 229 558 b 207 439 229 449 219 439 b 186 460 196 439 186 449 b 186 753 186 558 186 656 b 149 790 186 774 169 790 l 67 790 b 29 753 46 790 29 774 b 29 383 29 629 29 507 b 167 236 29 292 75 236 l 199 236 b 229 243 199 236 211 238 b 196 193 229 210 224 194 b 136 193 194 193 138 193 b 49 97 65 193 49 167 b 136 0 49 8 97 0 b 275 0 168 0 243 0 b 351 135 304 0 351 22 b 353 753 351 342 353 547 b 315 790 353 774 336 790 z "},"z":{"ha":378,"x_min":0,"x_max":0,"o":"m 185 344 l 249 344 b 347 433 315 344 347 376 b 347 643 347 504 347 574 b 211 790 347 722 303 790 l 88 790 b 50 753 67 790 50 774 l 50 533 b 88 496 50 513 67 496 l 139 496 b 201 469 182 496 201 486 b 131 433 201 449 176 433 l 115 433 b 29 358 61 433 29 414 b 29 76 29 264 29 169 b 122 0 29 13 68 0 l 249 0 b 347 136 338 0 347 57 b 249 254 347 210 325 254 l 185 254 b 185 344 111 254 106 344 z "}}}
